<svg width="241" height="47" viewBox="0 0 241 47" fill="none" xmlns="http://www.w3.org/2000/svg">
<rect width="241" height="47" rx="5" fill="#0B0B0B"/>
<path d="M43.33 28C43.2367 28 43.1527 27.9673 43.078 27.902C43.0127 27.8273 42.98 27.7433 42.98 27.65V18.55C42.98 18.4473 43.0127 18.3633 43.078 18.298C43.1527 18.2327 43.2367 18.2 43.33 18.2H46.97C48.342 18.2 49.406 18.5267 50.162 19.18C50.918 19.8333 51.3147 20.7807 51.352 22.022C51.3613 22.2927 51.366 22.652 51.366 23.1C51.366 23.548 51.3613 23.9027 51.352 24.164C51.3053 25.4613 50.918 26.4273 50.19 27.062C49.4713 27.6873 48.4213 28 47.04 28H43.33ZM46.97 25.984C47.586 25.984 48.0387 25.8393 48.328 25.55C48.6173 25.2513 48.7713 24.78 48.79 24.136C48.8087 23.8653 48.818 23.5153 48.818 23.086C48.818 22.6567 48.8087 22.3113 48.79 22.05C48.7713 21.4247 48.6033 20.9627 48.286 20.664C47.978 20.3653 47.516 20.216 46.9 20.216H45.5V25.984H46.97ZM56.2915 28.14C55.1342 28.14 54.2428 27.8647 53.6175 27.314C52.9922 26.7633 52.6515 25.9887 52.5955 24.99C52.5862 24.8687 52.5815 24.6587 52.5815 24.36C52.5815 24.0613 52.5862 23.8513 52.5955 23.73C52.6515 22.7407 53.0015 21.9707 53.6455 21.42C54.2895 20.86 55.1715 20.58 56.2915 20.58C57.4208 20.58 58.3075 20.86 58.9515 21.42C59.5955 21.9707 59.9455 22.7407 60.0015 23.73C60.0108 23.8513 60.0155 24.0613 60.0155 24.36C60.0155 24.6587 60.0108 24.8687 60.0015 24.99C59.9455 25.9887 59.6048 26.7633 58.9795 27.314C58.3542 27.8647 57.4582 28.14 56.2915 28.14ZM56.2915 26.432C56.7022 26.432 57.0055 26.3107 57.2015 26.068C57.3975 25.816 57.5095 25.4333 57.5375 24.92C57.5468 24.8267 57.5515 24.64 57.5515 24.36C57.5515 24.08 57.5468 23.8933 57.5375 23.8C57.5095 23.296 57.3928 22.918 57.1875 22.666C56.9915 22.414 56.6928 22.288 56.2915 22.288C55.5168 22.288 55.1062 22.792 55.0595 23.8L55.0455 24.36L55.0595 24.92C55.0782 25.4333 55.1855 25.816 55.3815 26.068C55.5868 26.3107 55.8902 26.432 56.2915 26.432ZM63.2173 28C63.0867 28 62.984 27.972 62.9093 27.916C62.844 27.8507 62.7927 27.762 62.7553 27.65L60.7393 21.168L60.7113 21.028C60.7113 20.944 60.744 20.874 60.8093 20.818C60.8747 20.7527 60.9493 20.72 61.0333 20.72H62.4753C62.5873 20.72 62.6807 20.7527 62.7553 20.818C62.83 20.874 62.8767 20.9393 62.8953 21.014L64.0713 25.018L65.3313 21.028C65.35 20.9533 65.3967 20.8833 65.4713 20.818C65.546 20.7527 65.644 20.72 65.7653 20.72H66.6893C66.8107 20.72 66.9087 20.7527 66.9833 20.818C67.058 20.8833 67.1047 20.9533 67.1233 21.028L68.3833 25.018L69.5593 21.014C69.578 20.9393 69.6247 20.874 69.6993 20.818C69.774 20.7527 69.8673 20.72 69.9793 20.72H71.4213C71.5053 20.72 71.58 20.7527 71.6453 20.818C71.7107 20.874 71.7433 20.944 71.7433 21.028L71.7153 21.168L69.6993 27.65C69.662 27.762 69.606 27.8507 69.5313 27.916C69.466 27.972 69.368 28 69.2373 28H67.9773C67.7347 28 67.5807 27.8833 67.5153 27.65L66.2273 23.814L64.9393 27.65C64.874 27.8833 64.72 28 64.4773 28H63.2173ZM73.2678 28C73.1651 28 73.0811 27.9673 73.0158 27.902C72.9505 27.8367 72.9178 27.7527 72.9178 27.65V21.07C72.9178 20.9673 72.9505 20.8833 73.0158 20.818C73.0811 20.7527 73.1651 20.72 73.2678 20.72H74.8778C74.9805 20.72 75.0645 20.7527 75.1298 20.818C75.2045 20.8833 75.2418 20.9673 75.2418 21.07V21.602C75.4938 21.294 75.8158 21.0467 76.2078 20.86C76.6091 20.6733 77.0618 20.58 77.5658 20.58C78.3871 20.58 79.0545 20.86 79.5678 21.42C80.0811 21.9707 80.3378 22.7453 80.3378 23.744V27.65C80.3378 27.7433 80.3051 27.8273 80.2398 27.902C80.1745 27.9673 80.0905 28 79.9878 28H78.2238C78.1305 28 78.0465 27.9673 77.9718 27.902C77.9065 27.8273 77.8738 27.7433 77.8738 27.65V23.828C77.8738 23.3893 77.7665 23.0533 77.5518 22.82C77.3371 22.5773 77.0291 22.456 76.6278 22.456C76.2358 22.456 75.9278 22.5773 75.7038 22.82C75.4798 23.0533 75.3678 23.3893 75.3678 23.828V27.65C75.3678 27.7433 75.3351 27.8273 75.2698 27.902C75.2045 27.9673 75.1205 28 75.0178 28H73.2678ZM82.2639 28C82.1706 28 82.0866 27.9673 82.0119 27.902C81.9466 27.8273 81.9139 27.7433 81.9139 27.65V18.41C81.9139 18.3073 81.9466 18.2233 82.0119 18.158C82.0866 18.0927 82.1706 18.06 82.2639 18.06H83.9159C84.0186 18.06 84.1026 18.0927 84.1679 18.158C84.2332 18.2233 84.2659 18.3073 84.2659 18.41V27.65C84.2659 27.7527 84.2332 27.8367 84.1679 27.902C84.1026 27.9673 84.0186 28 83.9159 28H82.2639ZM89.3638 28.14C88.2064 28.14 87.3151 27.8647 86.6898 27.314C86.0644 26.7633 85.7238 25.9887 85.6678 24.99C85.6584 24.8687 85.6538 24.6587 85.6538 24.36C85.6538 24.0613 85.6584 23.8513 85.6678 23.73C85.7238 22.7407 86.0738 21.9707 86.7178 21.42C87.3618 20.86 88.2438 20.58 89.3638 20.58C90.4931 20.58 91.3798 20.86 92.0238 21.42C92.6678 21.9707 93.0178 22.7407 93.0738 23.73C93.0831 23.8513 93.0878 24.0613 93.0878 24.36C93.0878 24.6587 93.0831 24.8687 93.0738 24.99C93.0178 25.9887 92.6771 26.7633 92.0518 27.314C91.4264 27.8647 90.5304 28.14 89.3638 28.14ZM89.3638 26.432C89.7744 26.432 90.0778 26.3107 90.2738 26.068C90.4698 25.816 90.5818 25.4333 90.6098 24.92C90.6191 24.8267 90.6238 24.64 90.6238 24.36C90.6238 24.08 90.6191 23.8933 90.6098 23.8C90.5818 23.296 90.4651 22.918 90.2598 22.666C90.0638 22.414 89.7651 22.288 89.3638 22.288C88.5891 22.288 88.1784 22.792 88.1318 23.8L88.1178 24.36L88.1318 24.92C88.1504 25.4333 88.2578 25.816 88.4538 26.068C88.6591 26.3107 88.9624 26.432 89.3638 26.432ZM96.6623 28.14C96.1677 28.14 95.715 28.0467 95.3043 27.86C94.903 27.664 94.5857 27.4027 94.3523 27.076C94.1283 26.74 94.0163 26.3713 94.0163 25.97C94.0163 25.326 94.2777 24.808 94.8003 24.416C95.3323 24.024 96.0603 23.7533 96.9843 23.604L98.7343 23.338V23.142C98.7343 22.7873 98.6597 22.526 98.5103 22.358C98.361 22.19 98.109 22.106 97.7543 22.106C97.5397 22.106 97.3623 22.1433 97.2223 22.218C97.0823 22.2927 96.9377 22.3953 96.7883 22.526C96.6577 22.638 96.5597 22.7127 96.4943 22.75C96.4663 22.8247 96.415 22.862 96.3403 22.862H94.8143C94.721 22.862 94.6417 22.834 94.5763 22.778C94.5203 22.7127 94.497 22.638 94.5063 22.554C94.5157 22.302 94.637 22.022 94.8703 21.714C95.113 21.406 95.477 21.14 95.9623 20.916C96.457 20.692 97.0637 20.58 97.7823 20.58C98.9303 20.58 99.7797 20.8367 100.33 21.35C100.881 21.854 101.156 22.5353 101.156 23.394V27.65C101.156 27.7433 101.124 27.8273 101.058 27.902C100.993 27.9673 100.909 28 100.806 28H99.1823C99.089 28 99.005 27.9673 98.9303 27.902C98.865 27.8273 98.8323 27.7433 98.8323 27.65V27.16C98.627 27.4493 98.3377 27.6873 97.9643 27.874C97.6003 28.0513 97.1663 28.14 96.6623 28.14ZM97.3203 26.544C97.7497 26.544 98.095 26.404 98.3563 26.124C98.627 25.844 98.7623 25.4333 98.7623 24.892V24.696L97.5723 24.906C96.7323 25.0553 96.3123 25.3493 96.3123 25.788C96.3123 26.0213 96.4103 26.208 96.6063 26.348C96.8023 26.4787 97.0403 26.544 97.3203 26.544ZM105.452 28.14C104.537 28.14 103.823 27.8553 103.31 27.286C102.806 26.7073 102.531 25.8953 102.484 24.85L102.47 24.36L102.484 23.856C102.521 22.848 102.797 22.05 103.31 21.462C103.833 20.874 104.547 20.58 105.452 20.58C106.301 20.58 106.987 20.8553 107.51 21.406V18.41C107.51 18.3073 107.543 18.2233 107.608 18.158C107.673 18.0927 107.757 18.06 107.86 18.06H109.568C109.671 18.06 109.755 18.0927 109.82 18.158C109.885 18.2233 109.918 18.3073 109.918 18.41V27.65C109.918 27.7433 109.885 27.8273 109.82 27.902C109.755 27.9673 109.671 28 109.568 28H107.986C107.893 28 107.809 27.9673 107.734 27.902C107.669 27.8273 107.636 27.7433 107.636 27.65V27.202C107.123 27.8273 106.395 28.14 105.452 28.14ZM106.222 26.264C106.642 26.264 106.955 26.1333 107.16 25.872C107.365 25.6013 107.482 25.256 107.51 24.836C107.519 24.7147 107.524 24.5373 107.524 24.304C107.524 24.08 107.519 23.9073 107.51 23.786C107.491 23.4033 107.375 23.086 107.16 22.834C106.945 22.582 106.633 22.456 106.222 22.456C105.783 22.456 105.466 22.5867 105.27 22.848C105.083 23.1093 104.976 23.4687 104.948 23.926C104.939 24.0193 104.934 24.164 104.934 24.36C104.934 24.556 104.939 24.7007 104.948 24.794C104.976 25.2513 105.083 25.6107 105.27 25.872C105.466 26.1333 105.783 26.264 106.222 26.264ZM113.787 28C113.713 28 113.643 27.972 113.577 27.916C113.521 27.8507 113.493 27.7807 113.493 27.706C113.493 27.65 113.498 27.608 113.507 27.58L116.797 18.592C116.825 18.48 116.886 18.3867 116.979 18.312C117.073 18.2373 117.194 18.2 117.343 18.2H119.415C119.565 18.2 119.686 18.2373 119.779 18.312C119.873 18.3867 119.933 18.48 119.961 18.592L123.237 27.58L123.265 27.706C123.265 27.7807 123.233 27.8507 123.167 27.916C123.111 27.972 123.041 28 122.957 28H121.235C121.011 28 120.862 27.902 120.787 27.706L120.241 26.278H116.503L115.971 27.706C115.897 27.902 115.743 28 115.509 28H113.787ZM119.681 24.262L118.379 20.566L117.077 24.262H119.681ZM124.719 28C124.625 28 124.541 27.9673 124.467 27.902C124.401 27.8273 124.369 27.7433 124.369 27.65V18.55C124.369 18.4473 124.401 18.3633 124.467 18.298C124.541 18.2327 124.625 18.2 124.719 18.2H128.639C129.833 18.2 130.771 18.4753 131.453 19.026C132.143 19.5767 132.489 20.3793 132.489 21.434C132.489 22.4793 132.148 23.268 131.467 23.8C130.785 24.3227 129.843 24.584 128.639 24.584H126.973V27.65C126.973 27.7527 126.935 27.8367 126.861 27.902C126.795 27.9673 126.711 28 126.609 28H124.719ZM128.569 22.652C128.979 22.652 129.301 22.5493 129.535 22.344C129.768 22.1293 129.885 21.8167 129.885 21.406C129.885 21.0233 129.773 20.72 129.549 20.496C129.334 20.2627 129.007 20.146 128.569 20.146H126.931V22.652H128.569ZM134.18 28C134.086 28 134.002 27.9673 133.928 27.902C133.862 27.8273 133.83 27.7433 133.83 27.65V18.55C133.83 18.4473 133.862 18.3633 133.928 18.298C134.002 18.2327 134.086 18.2 134.18 18.2H135.944C136.046 18.2 136.13 18.2327 136.196 18.298C136.261 18.3633 136.294 18.4473 136.294 18.55V21.658L138.884 18.466C138.996 18.2887 139.178 18.2 139.43 18.2H141.446C141.53 18.2 141.6 18.2327 141.656 18.298C141.712 18.354 141.74 18.4193 141.74 18.494C141.74 18.5593 141.726 18.6153 141.698 18.662L138.338 22.89L141.95 27.538C141.987 27.5753 142.006 27.6313 142.006 27.706C142.006 27.7807 141.978 27.8507 141.922 27.916C141.866 27.972 141.796 28 141.712 28H139.626C139.402 28 139.215 27.9067 139.066 27.72L136.294 24.262V27.65C136.294 27.7527 136.261 27.8367 136.196 27.902C136.13 27.9673 136.046 28 135.944 28H134.18Z" fill="#8264E2"/>
<path d="M149.063 28.14C148.036 28.14 147.238 27.8507 146.669 27.272C146.109 26.6933 145.81 25.9233 145.773 24.962L145.759 24.36L145.773 23.758C145.81 22.806 146.114 22.0407 146.683 21.462C147.252 20.874 148.046 20.58 149.063 20.58C150.08 20.58 150.874 20.874 151.443 21.462C152.012 22.0407 152.316 22.806 152.353 23.758C152.362 23.8607 152.367 24.0613 152.367 24.36C152.367 24.6587 152.362 24.8593 152.353 24.962C152.316 25.9233 152.012 26.6933 151.443 27.272C150.883 27.8507 150.09 28.14 149.063 28.14ZM149.063 27.062C149.651 27.062 150.113 26.8753 150.449 26.502C150.794 26.1287 150.981 25.592 151.009 24.892C151.018 24.7987 151.023 24.6213 151.023 24.36C151.023 24.0987 151.018 23.9213 151.009 23.828C150.981 23.128 150.794 22.5913 150.449 22.218C150.113 21.8447 149.651 21.658 149.063 21.658C148.475 21.658 148.008 21.8447 147.663 22.218C147.318 22.5913 147.136 23.128 147.117 23.828L147.103 24.36L147.117 24.892C147.136 25.592 147.318 26.1287 147.663 26.502C148.008 26.8753 148.475 27.062 149.063 27.062ZM154.442 28C154.349 28 154.269 27.972 154.204 27.916C154.148 27.8507 154.12 27.7713 154.12 27.678V21.042C154.12 20.9487 154.148 20.874 154.204 20.818C154.269 20.7527 154.349 20.72 154.442 20.72H155.1C155.193 20.72 155.268 20.7527 155.324 20.818C155.389 20.874 155.422 20.9487 155.422 21.042V21.658C155.693 21.3127 156.01 21.0467 156.374 20.86C156.747 20.6733 157.209 20.58 157.76 20.58C158.656 20.58 159.351 20.8693 159.846 21.448C160.35 22.0173 160.602 22.778 160.602 23.73V27.678C160.602 27.7713 160.569 27.8507 160.504 27.916C160.448 27.972 160.373 28 160.28 28H159.58C159.487 28 159.407 27.972 159.342 27.916C159.286 27.8507 159.258 27.7713 159.258 27.678V23.8C159.258 23.1373 159.095 22.624 158.768 22.26C158.451 21.896 157.989 21.714 157.382 21.714C156.794 21.714 156.327 21.9007 155.982 22.274C155.637 22.638 155.464 23.1467 155.464 23.8V27.678C155.464 27.7713 155.431 27.8507 155.366 27.916C155.31 27.972 155.235 28 155.142 28H154.442ZM166.546 28C166.453 28 166.373 27.972 166.308 27.916C166.252 27.8507 166.224 27.7713 166.224 27.678V18.536C166.224 18.4333 166.252 18.354 166.308 18.298C166.373 18.2327 166.453 18.2 166.546 18.2H169.724C171.133 18.2 172.151 18.5173 172.776 19.152C173.401 19.7773 173.728 20.7247 173.756 21.994C173.765 22.2647 173.77 22.6287 173.77 23.086C173.77 23.5433 173.765 23.912 173.756 24.192C173.728 25.0787 173.579 25.802 173.308 26.362C173.047 26.9127 172.631 27.3233 172.062 27.594C171.493 27.8647 170.737 28 169.794 28H166.546ZM169.724 26.81C170.368 26.81 170.877 26.7213 171.25 26.544C171.633 26.3667 171.908 26.0867 172.076 25.704C172.253 25.312 172.351 24.7893 172.37 24.136C172.389 23.576 172.398 23.226 172.398 23.086C172.398 22.9367 172.389 22.5913 172.37 22.05C172.351 21.126 172.132 20.454 171.712 20.034C171.292 19.6047 170.606 19.39 169.654 19.39H167.596V26.81H169.724ZM176.016 28C175.923 28 175.844 27.972 175.778 27.916C175.722 27.8507 175.694 27.7713 175.694 27.678V21.056C175.694 20.9627 175.722 20.8833 175.778 20.818C175.844 20.7527 175.923 20.72 176.016 20.72H176.66C176.754 20.72 176.833 20.7527 176.898 20.818C176.964 20.8833 176.996 20.9627 176.996 21.056V21.672C177.379 21.0373 178.032 20.72 178.956 20.72H179.502C179.596 20.72 179.67 20.7527 179.726 20.818C179.792 20.874 179.824 20.9487 179.824 21.042V21.616C179.824 21.7093 179.792 21.784 179.726 21.84C179.67 21.896 179.596 21.924 179.502 21.924H178.662C178.158 21.924 177.762 22.0733 177.472 22.372C177.183 22.6613 177.038 23.058 177.038 23.562V27.678C177.038 27.7713 177.006 27.8507 176.94 27.916C176.875 27.972 176.796 28 176.702 28H176.016ZM181.223 19.362C181.129 19.362 181.05 19.334 180.985 19.278C180.929 19.2127 180.901 19.1333 180.901 19.04V18.284C180.901 18.1907 180.929 18.1113 180.985 18.046C181.05 17.9807 181.129 17.948 181.223 17.948H182.105C182.198 17.948 182.277 17.9807 182.343 18.046C182.408 18.1113 182.441 18.1907 182.441 18.284V19.04C182.441 19.1333 182.408 19.2127 182.343 19.278C182.277 19.334 182.198 19.362 182.105 19.362H181.223ZM181.335 28C181.241 28 181.162 27.972 181.097 27.916C181.041 27.8507 181.013 27.7713 181.013 27.678V21.042C181.013 20.9487 181.041 20.874 181.097 20.818C181.162 20.7527 181.241 20.72 181.335 20.72H182.007C182.1 20.72 182.175 20.7527 182.231 20.818C182.296 20.874 182.329 20.9487 182.329 21.042V27.678C182.329 27.7713 182.296 27.8507 182.231 27.916C182.175 27.972 182.1 28 182.007 28H181.335ZM186.937 28C186.695 28 186.522 27.8833 186.419 27.65L183.829 21.154L183.801 21.014C183.801 20.93 183.829 20.86 183.885 20.804C183.941 20.748 184.011 20.72 184.095 20.72H184.767C184.926 20.72 185.043 20.7993 185.117 20.958L187.245 26.474L189.373 20.958C189.457 20.7993 189.569 20.72 189.709 20.72H190.395C190.47 20.72 190.535 20.748 190.591 20.804C190.657 20.86 190.689 20.93 190.689 21.014L190.661 21.154L188.057 27.65C187.955 27.8833 187.782 28 187.539 28H186.937ZM194.807 28.14C193.846 28.14 193.076 27.846 192.497 27.258C191.928 26.6607 191.615 25.8487 191.559 24.822L191.545 24.346L191.559 23.884C191.625 22.876 191.942 22.0733 192.511 21.476C193.09 20.8787 193.851 20.58 194.793 20.58C195.829 20.58 196.632 20.9113 197.201 21.574C197.771 22.2273 198.055 23.114 198.055 24.234V24.472C198.055 24.5653 198.023 24.6447 197.957 24.71C197.901 24.766 197.827 24.794 197.733 24.794H192.889V24.92C192.917 25.5267 193.099 26.0447 193.435 26.474C193.781 26.894 194.233 27.104 194.793 27.104C195.223 27.104 195.573 27.02 195.843 26.852C196.123 26.6747 196.329 26.4927 196.459 26.306C196.543 26.194 196.604 26.1287 196.641 26.11C196.688 26.082 196.767 26.068 196.879 26.068H197.565C197.649 26.068 197.719 26.0913 197.775 26.138C197.831 26.1847 197.859 26.25 197.859 26.334C197.859 26.5393 197.729 26.7867 197.467 27.076C197.215 27.3653 196.856 27.6173 196.389 27.832C195.932 28.0373 195.405 28.14 194.807 28.14ZM196.725 23.828V23.786C196.725 23.142 196.548 22.6193 196.193 22.218C195.848 21.8073 195.381 21.602 194.793 21.602C194.205 21.602 193.739 21.8073 193.393 22.218C193.057 22.6193 192.889 23.142 192.889 23.786V23.828H196.725Z" fill="white" fill-opacity="0.7"/>
<g clip-path="url(#clip0)">
<path d="M13.6669 33.9978L17.3333 27.3326H32L28.3333 33.9978H13.6669Z" fill="#3777E3"/>
<path d="M24.6669 27.3326H32L24.6669 14.0022H17.3333L24.6669 27.3326Z" fill="#FFCF63"/>
<path d="M10 27.3349L13.6669 34.0001L21 20.6697L17.3333 14.0045L10 27.3349Z" fill="#11A861"/>
</g>
<defs>
<clipPath id="clip0">
<rect width="22" height="20" fill="white" transform="translate(10 14)"/>
</clipPath>
</defs>
</svg>
